<?xml version="1.0" encoding="utf-8"?>
<!-- Generator: Adobe Illustrator 22.0.1, SVG Export Plug-In . SVG Version: 6.00 Build 0)  -->
<svg version="1.1"
	 id="Capa_1" inkscape:version="0.92.4 (5da689c313, 2019-01-14)" sodipodi:docname="gem.svg" xmlns:cc="http://creativecommons.org/ns#" xmlns:dc="http://purl.org/dc/elements/1.1/" xmlns:inkscape="http://www.inkscape.org/namespaces/inkscape" xmlns:rdf="http://www.w3.org/1999/02/22-rdf-syntax-ns#" xmlns:sodipodi="http://sodipodi.sourceforge.net/DTD/sodipodi-0.dtd" xmlns:svg="http://www.w3.org/2000/svg"
	 xmlns="http://www.w3.org/2000/svg" xmlns:xlink="http://www.w3.org/1999/xlink" x="0px" y="0px" viewBox="0 0 512 512"
	 style="enable-background:new 0 0 512 512;" xml:space="preserve">
<style type="text/css">
	.st0{fill:#ECA85B;}
	.st1{fill:#E48A22;}
	.st2{fill:#E1B761;}
	.st3{fill:#D7742B;}
	.st4{fill:#C74E16;}
	.st5{fill:#C00F0F;}
</style>
<sodipodi:namedview  bordercolor="#666666" borderopacity="1" gridtolerance="10" guidetolerance="10" id="namedview202" inkscape:current-layer="Capa_1" inkscape:cx="330.11078" inkscape:cy="275.62705" inkscape:pageopacity="0" inkscape:pageshadow="2" inkscape:window-height="1017" inkscape:window-maximized="1" inkscape:window-width="1920" inkscape:window-x="-8" inkscape:window-y="-8" inkscape:zoom="1.3037281" objecttolerance="10" pagecolor="#ffffff" showgrid="true">
	</sodipodi:namedview>
<polygon id="polygon151" class="st0" points="326.4,157.4 326.4,354.6 438.2,381.8 438.2,130.2 "/>
<g id="g157">
	<polygon id="polygon153" class="st1" points="346.4,177.4 438.2,130.2 256,0 236,132.9 	"/>
	<polygon id="polygon155" class="st1" points="236,379.1 256,512 438.2,381.8 346.4,334.6 	"/>
</g>
<polygon id="polygon159" class="st2" points="256,112.8 236,256 256,399.2 346.4,334.6 346.4,177.4 "/>
<polygon id="polygon161" class="st3" points="145.6,157.4 145.6,354.6 256,399.2 256,112.8 "/>
<g id="g167">
	<polygon id="polygon163" class="st4" points="165.6,334.6 114.6,331 73.8,381.8 256,512 256,399.2 	"/>
	<polygon id="polygon165" class="st4" points="256,112.8 256,0 73.8,130.2 114.6,182.3 165.6,177.4 	"/>
</g>
<polygon id="polygon169" class="st5" points="165.6,177.4 73.8,130.2 73.8,381.8 165.6,334.6 "/>
<g id="g171">
</g>
<g id="g173">
</g>
<g id="g175">
</g>
<g id="g177">
</g>
<g id="g179">
</g>
<g id="g181">
</g>
<g id="g183">
</g>
<g id="g185">
</g>
<g id="g187">
</g>
<g id="g189">
</g>
<g id="g191">
</g>
<g id="g193">
</g>
<g id="g195">
</g>
<g id="g197">
</g>
<g id="g199">
</g>
<text transform="matrix(0.7772 0 0 1 666.4941 381.8002)" style="font-family:'Lato-Regular'; font-size:290.5313px;">Zincite</text>
</svg>
